# xmcd
#
# Track frame offsets:
#	150
#	11736
#	26371
#	43719
#	54567
#	65682
#	75807
#	85297
#	97873
#	111064
#	124533
#	134158
#
# Disc length: 1996 seconds
# Revision: 0
# Processed by: cddbd v1.5.2PL0 Copyright (c) Steve Scherf et al.
# Submitted via: dBpowerAMP V12.0
#
DISCID=9207ca0c
DTITLE=The Kendalls - Super Hits
DYEAR=2010
DGENRE=Country
TTITLE0=Sweet Desire
TTITLE1=Makin' Believe
TTITLE2=Don't Let Me Cross Over
TTITLE3=Heaven's Just a Sin Away
TTITLE4=It Don't Feel Like Sinnin' to Me
TTITLE5=I Had a Lovely Time
TTITLE6=I Don't Do Like That No More
TTITLE7=Heart of the Matter
TTITLE8=Dancin' with Myself Tonight
TTITLE9=Country Music Station
TTITLE10=A Whole Lot to Lose
TTITLE11=When Can We Do This Again?
EXTD=
EXTT0=
EXTT1=
EXTT2=
EXTT3=
EXTT4=
EXTT5=
EXTT6=
EXTT7=
EXTT8=
EXTT9=
EXTT10=
EXTT11=
PLAYORDER=
